<svg width="30" height="30" viewBox="0 0 30 30" fill="none" xmlns="http://www.w3.org/2000/svg">
<path d="M14.6454 3.00805C13 0.499836 9.14892 0.594331 6.64792 1.10658C3.24436 1.80346 0.387548 4.87827 0.529486 9.32283C0.679111 14.0075 3.94886 17.4297 7.08511 20.2493C8.65323 21.6589 10.2626 22.9421 11.4556 24.0952C13.8109 26.2241 14.952 29.8681 14.952 29.8681C14.952 29.8681 16.4854 26.1492 18.4484 24.2698C19.6791 23.1011 21.3031 21.7942 22.9061 20.3367C26.1122 17.4215 29.4314 13.8346 29.287 9.23558C29.287 1.59133 21.712 1.67227 18.7943 4.32964C20.002 3.69052 21.3018 3.55483 22.4692 3.81627C24.6127 4.29646 26.3875 6.06221 26.4899 9.32302C26.5875 12.443 24.0468 15.4535 20.983 18.2389C19.4513 19.6314 17.8735 20.8917 16.5253 22.172C15.8093 22.8523 15.479 23.4541 14.9519 24.1592C14.4246 23.4103 14.098 22.7801 13.3786 22.0847C9.91961 18.1499 4.42392 13.9046 4.2043 9.23552C4.1593 5.34677 9.05356 4.27725 11.5 6C14.6454 8 16.0835 9.95914 19.8867 12.3484L14.6454 3.00805Z" fill="url(#paint0_linear_162_620)"/>
<defs>
<linearGradient id="paint0_linear_162_620" x1="6.82635" y1="28.5703" x2="25.5583" y2="-0.0842635" gradientUnits="userSpaceOnUse">
<stop stop-color="#C680B2"/>
<stop offset="0.5111" stop-color="#9E5594"/>
<stop offset="1" stop-color="#7B337E"/>
</linearGradient>
</defs>
</svg>
