<svg width="231" height="237" viewBox="0 0 231 237" fill="none" xmlns="http://www.w3.org/2000/svg">
<g clip-path="url(#clip0_227_8271)">
<path d="M170.3 233.57H60.47C27.08 233.57 0 206.5 0 173.1V63.2701C0 29.87 27.08 2.80005 60.47 2.80005H170.3C203.7 2.80005 230.77 29.8801 230.77 63.2701V173.1C230.78 206.5 203.7 233.57 170.3 233.57Z" fill="#ECCCD7"/>
<g filter="url(#filter0_dd_227_8271)">
<path d="M69.9001 121.35C87.2032 121.35 101.23 107.323 101.23 90.0199C101.23 72.7169 87.2032 58.6899 69.9001 58.6899C52.597 58.6899 38.5701 72.7169 38.5701 90.0199C38.5701 107.323 52.597 121.35 69.9001 121.35Z" fill="url(#paint0_linear_227_8271)"/>
<path d="M204.02 80.8201C199.08 70.8601 187.3 66.5501 177.19 70.7601C176.68 70.9701 176.09 70.7401 175.84 70.2401C173.27 65.0501 168.83 61.4001 163.74 59.6801C158.51 57.9201 152.57 58.2101 147.27 61.0001C137.13 66.3301 133.34 79.0001 138.44 89.2601L149.61 111.78C153.88 120.4 164.34 123.92 172.96 119.65L194.56 108.94C194.69 108.88 194.82 108.81 194.95 108.74C199.93 106.14 203.45 101.8 205.13 96.84C206.82 91.75 206.6 86.0101 204.02 80.8201Z" fill="url(#paint1_linear_227_8271)"/>
<path d="M115.39 193.91C103.69 193.91 92.5702 190.2 83.2402 183.19C74.2202 176.42 67.4502 166.78 64.1502 156.04C61.8402 148.52 66.0702 140.56 73.5902 138.25C81.1102 135.94 89.0702 140.17 91.3802 147.69C94.6302 158.29 104.28 165.42 115.39 165.42C126.5 165.42 136.15 158.3 139.4 147.69C141.71 140.17 149.67 135.94 157.19 138.25C164.71 140.56 168.94 148.52 166.63 156.04C163.34 166.78 156.56 176.42 147.54 183.19C138.21 190.2 127.09 193.91 115.39 193.91Z" fill="url(#paint2_linear_227_8271)"/>
</g>
</g>
<defs>
<filter id="filter0_dd_227_8271" x="30.5701" y="50.5801" width="185.645" height="153.33" filterUnits="userSpaceOnUse" color-interpolation-filters="sRGB">
<feFlood flood-opacity="0" result="BackgroundImageFix"/>
<feColorMatrix in="SourceAlpha" type="matrix" values="0 0 0 0 0 0 0 0 0 0 0 0 0 0 0 0 0 0 127 0" result="hardAlpha"/>
<feOffset dy="2"/>
<feGaussianBlur stdDeviation="4"/>
<feComposite in2="hardAlpha" operator="out"/>
<feColorMatrix type="matrix" values="0 0 0 0 0 0 0 0 0 0 0 0 0 0 0 0 0 0 0.07 0"/>
<feBlend mode="normal" in2="BackgroundImageFix" result="effect1_dropShadow_227_8271"/>
<feColorMatrix in="SourceAlpha" type="matrix" values="0 0 0 0 0 0 0 0 0 0 0 0 0 0 0 0 0 0 127 0" result="hardAlpha"/>
<feOffset dx="2"/>
<feGaussianBlur stdDeviation="4"/>
<feComposite in2="hardAlpha" operator="out"/>
<feColorMatrix type="matrix" values="0 0 0 0 0 0 0 0 0 0 0 0 0 0 0 0 0 0 0.08 0"/>
<feBlend mode="normal" in2="effect1_dropShadow_227_8271" result="effect2_dropShadow_227_8271"/>
<feBlend mode="normal" in="SourceGraphic" in2="effect2_dropShadow_227_8271" result="shape"/>
</filter>
<linearGradient id="paint0_linear_227_8271" x1="74.8109" y1="109.759" x2="59.1111" y2="46.7115" gradientUnits="userSpaceOnUse">
<stop stop-color="#BE74A9"/>
<stop offset="0.5111" stop-color="#9E5594"/>
<stop offset="1" stop-color="#7B337E"/>
</linearGradient>
<linearGradient id="paint1_linear_227_8271" x1="151.524" y1="118.656" x2="189.984" y2="52.4832" gradientUnits="userSpaceOnUse">
<stop stop-color="#BE74A9"/>
<stop offset="0.5111" stop-color="#9E5594"/>
<stop offset="1" stop-color="#7B337E"/>
</linearGradient>
<linearGradient id="paint2_linear_227_8271" x1="118.348" y1="157.785" x2="140.227" y2="191.259" gradientUnits="userSpaceOnUse">
<stop offset="0.00119874" stop-color="#7B337E"/>
<stop offset="0.3979" stop-color="#632368"/>
<stop offset="1" stop-color="#430D4B"/>
</linearGradient>
<clipPath id="clip0_227_8271">
<rect width="230.78" height="236.37" fill="white"/>
</clipPath>
</defs>
</svg>
